# This file uses centimeters as units for non-parametric coordinates.

mtllib StreetLamp.mtl
g default
v 5.617229 0.011070 0.670232
v 5.929325 0.011070 0.670232
v 5.617229 12.012657 0.670232
v 5.929325 12.012657 0.670232
v 5.617229 12.012657 0.368246
v 5.929325 12.012657 0.368246
v 5.617229 0.011070 0.368246
v 5.929325 0.011070 0.368246
v 5.617229 11.356758 0.670232
v 5.617229 11.356758 0.368246
v 5.929325 11.356758 0.368246
v 5.929325 11.356758 0.670232
v 5.929325 11.356758 3.490511
v 5.617229 11.356758 3.490511
v 5.929325 12.012657 3.490511
v 5.617229 12.012657 3.490511
v 5.617229 12.012657 3.177278
v 5.929325 12.012657 3.177278
v 5.929325 11.356758 3.177278
v 5.617229 11.356758 3.177278
v 6.324596 10.389925 2.780567
v 5.221947 10.389925 2.780567
v 6.324596 10.389925 3.887226
v 5.221947 10.389925 3.887226
v 6.152309 10.389925 2.953481
v 5.394238 10.389925 2.953481
v 6.152309 10.389925 3.714308
v 5.394238 10.389925 3.714308
v 6.027920 10.694102 3.078321
v 5.518627 10.694102 3.078321
v 6.027920 10.694102 3.589467
v 5.518627 10.694102 3.589467
vt 0.032060 0.884465
vt 0.046419 0.936578
vt 0.679556 0.273213
vt 0.696830 0.291264
vt 0.749857 0.309332
vt 0.768402 0.326212
vt 0.637377 0.228731
vt 0.744409 0.321130
vt 0.707499 0.313224
vt 0.720717 0.334212
vt 0.000000 0.848610
vt 0.047848 0.902257
vt 0.880025 0.151317
vt 0.908400 0.161216
vt 0.779250 0.069566
vt 0.882274 0.180628
vt 0.824604 0.116539
vt 0.844897 0.139566
vt 0.884671 0.203714
vt 0.866596 0.186159
vt 0.925225 0.076078
vt 0.919704 0.056908
vt 0.927393 0.026724
vt 0.952572 0.088785
vt 0.883755 0.063716
vt 0.898031 0.098736
vt 1.000000 0.133601
vt 0.935162 0.119773
vt 0.894774 0.059728
vt 0.908689 0.091781
vt 0.990865 0.116608
vt 0.942708 0.110853
vt 0.902767 0.012705
vt 0.970815 0.052068
vt 0.985219 0.088462
vt 0.889860 0.000000
vt 0.818914 0.087069
vt 0.936663 0.037907
vt 0.901670 0.192606
vt 0.775526 0.092505
vt 0.658349 0.228487
vt 0.754593 0.339978
vt 0.658088 0.262581
vt 0.030009 0.918142
vt 0.064252 0.920698
vt 0.015796 0.866232
vn 0.000000 0.000000 1.000000
vn 0.000000 0.000000 1.000000
vn 0.000000 0.000000 1.000000
vn 0.000000 0.000000 1.000000
vn 0.000000 1.000000 0.000000
vn 0.000000 1.000000 0.000000
vn 0.000000 1.000000 0.000000
vn 0.000000 1.000000 0.000000
vn 0.000000 0.000000 -1.000000
vn 0.000000 0.000000 -1.000000
vn 0.000000 0.000000 -1.000000
vn 0.000000 0.000000 -1.000000
vn 0.000000 -1.000000 0.000000
vn 0.000000 -1.000000 0.000000
vn 0.000000 -1.000000 0.000000
vn 0.000000 -1.000000 0.000000
vn 1.000000 0.000000 0.000000
vn 1.000000 0.000000 0.000000
vn 1.000000 0.000000 0.000000
vn 1.000000 0.000000 0.000000
vn -1.000000 0.000000 0.000000
vn -1.000000 0.000000 0.000000
vn -1.000000 0.000000 0.000000
vn -1.000000 0.000000 0.000000
vn -1.000000 0.000000 0.000000
vn -1.000000 0.000000 0.000000
vn -1.000000 0.000000 0.000000
vn -1.000000 0.000000 0.000000
vn 0.000000 0.000000 -1.000000
vn 0.000000 0.000000 -1.000000
vn 0.000000 0.000000 -1.000000
vn 0.000000 0.000000 -1.000000
vn 1.000000 0.000000 0.000000
vn 1.000000 0.000000 0.000000
vn 1.000000 0.000000 0.000000
vn 1.000000 0.000000 0.000000
vn 0.000000 0.323257 0.946311
vn 0.000000 0.323257 0.946311
vn 0.000000 0.000000 1.000000
vn 0.000000 0.000000 1.000000
vn 0.000000 -1.000000 0.000000
vn 0.000000 -1.000000 0.000000
vn 0.000000 -1.000000 0.000000
vn 0.000000 -1.000000 0.000000
vn 1.000000 0.000000 0.000000
vn 1.000000 0.000000 0.000000
vn 1.000000 0.000000 0.000000
vn 0.989385 0.145316 0.000000
vn 0.000000 1.000000 0.000000
vn 0.000000 1.000000 0.000000
vn 0.000000 1.000000 0.000000
vn 0.000000 1.000000 0.000000
vn -1.000000 0.000000 0.000000
vn -1.000000 0.000000 0.000000
vn -0.989385 0.145316 0.000000
vn -1.000000 0.000000 0.000000
vn 0.000000 1.000000 0.000000
vn 0.000000 1.000000 0.000000
vn 0.000000 1.000000 0.000000
vn 0.000000 1.000000 0.000000
vn 0.989385 0.145316 0.000000
vn 1.000000 0.000000 0.000000
vn 1.000000 0.000000 0.000000
vn 0.946414 0.322955 0.000000
vn 0.000000 -1.000000 0.000000
vn 0.000000 -1.000000 0.000000
vn 0.000000 -1.000000 0.000000
vn 0.000000 -1.000000 0.000000
vn -1.000000 0.000000 0.000000
vn -0.989385 0.145316 0.000000
vn -0.946414 0.322955 0.000000
vn -1.000000 0.000000 0.000000
vn 0.000000 0.379608 -0.925148
vn 0.000000 0.379608 -0.925148
vn 0.000000 0.379608 -0.925148
vn 0.000000 0.379608 -0.925148
vn 0.989385 0.145316 0.000000
vn 0.946414 0.322955 0.000000
vn 0.925629 0.378432 0.000000
vn 0.925629 0.378432 0.000000
vn 0.000000 0.323257 0.946311
vn 0.000000 0.323257 0.946311
vn 0.000000 0.379608 0.925148
vn 0.000000 0.379608 0.925148
vn -0.946414 0.322955 0.000000
vn -0.989385 0.145316 0.000000
vn -0.925629 0.378432 0.000000
vn -0.925629 0.378432 0.000000
vn 0.000000 -1.000000 0.000000
vn 0.000000 -1.000000 0.000000
vn 0.000000 -1.000000 0.000000
vn 0.000000 -1.000000 0.000000
vn 0.000000 -1.000000 0.000000
vn 0.000000 -1.000000 0.000001
vn 0.000000 -1.000000 0.000001
vn 0.000000 -1.000000 0.000000
vn 0.000000 -1.000000 0.000001
vn 0.000000 -1.000000 0.000001
vn 0.000000 -1.000000 0.000001
vn 0.000000 -1.000000 0.000001
vn 0.000000 -1.000000 0.000001
vn 0.000000 -1.000000 0.000000
vn 0.000000 -1.000000 0.000000
vn 0.000000 -1.000000 0.000001
vn 0.000000 -0.379687 0.925115
vn 0.000000 -0.379687 0.925115
vn 0.000000 -0.379687 0.925115
vn 0.000000 -0.379687 0.925115
vn -0.925598 -0.378509 0.000000
vn -0.925598 -0.378509 0.000000
vn -0.925598 -0.378509 0.000000
vn -0.925598 -0.378509 0.000000
vn 0.000000 -0.379687 -0.925115
vn 0.000000 -0.379687 -0.925115
vn 0.000000 -0.379687 -0.925115
vn 0.000000 -0.379687 -0.925115
vn 0.925598 -0.378509 0.000000
vn 0.925598 -0.378509 0.000000
vn 0.925598 -0.378509 0.000000
vn 0.925598 -0.378509 0.000000
s off
g StreetLamp2
usemtl StreetLamp:initialShadingGroup
f 1/1/1 2/46/2 12/3/3 9/4/4
f 3/5/5 4/6/6 6/42/7 5/8/8
f 10/9/9 11/10/10 8/45/11 7/12/12
f 7/12/13 8/45/14 2/2/15 1/44/16
f 2/46/17 8/11/18 11/43/19 12/3/20
f 7/12/21 1/1/22 9/4/23 10/9/24
f 10/9/25 9/4/26 3/5/27 5/8/28
f 5/8/29 6/42/30 11/10/31 10/9/32
f 12/3/33 11/43/34 6/7/35 4/41/36
f 14/13/37 13/14/38 15/39/39 16/16/40
f 9/4/41 12/3/42 19/17/43 20/18/44
f 12/3/45 4/41/46 18/40/47 19/17/48
f 4/6/49 3/5/50 17/20/51 18/19/52
f 3/5/53 9/4/54 20/18/55 17/20/56
f 18/19/57 17/20/58 16/16/59 15/39/60
f 19/17/61 18/40/62 15/15/63 13/37/64
f 30/21/65 29/38/66 31/34/67 32/24/68
f 17/20/69 20/18/70 14/13/71 16/16/72
f 20/18/73 19/17/74 21/25/75 22/26/76
f 19/17/77 13/37/78 23/36/79 21/25/80
f 13/14/81 14/13/82 24/28/83 23/27/84
f 14/13/85 20/18/86 22/26/87 24/28/88
f 22/26/89 21/25/90 25/29/91 26/30/92
f 21/25/93 23/36/94 27/33/95 25/29/96
f 23/27/97 24/28/98 28/32/99 27/31/100
f 24/28/101 22/26/102 26/30/103 28/32/104
f 26/30/105 25/29/106 29/22/107 30/21/108
f 25/29/109 27/33/110 31/23/111 29/22/112
f 27/31/113 28/32/114 32/24/115 31/35/116
f 28/32/117 26/30/118 30/21/119 32/24/120
