# This file uses centimeters as units for non-parametric coordinates.

mtllib StreetLamp.mtl
g default
v -10.574772 0.229096 1.760313
v -10.496096 0.229096 1.760313
v -10.574772 3.254580 1.760313
v -10.496096 3.254580 1.760313
v -10.574772 3.254580 1.684185
v -10.496096 3.254580 1.684185
v -10.574772 0.229096 1.684185
v -10.496096 0.229096 1.684185
v -10.574772 3.089234 1.760313
v -10.574772 3.089234 1.684185
v -10.496096 3.089234 1.684185
v -10.496096 3.089234 1.760313
v -10.496096 3.089234 2.471278
v -10.574772 3.089234 2.471278
v -10.496096 3.254580 2.471278
v -10.574772 3.254580 2.471278
v -10.574772 3.254580 2.392315
v -10.496096 3.254580 2.392315
v -10.496096 3.089234 2.392315
v -10.574772 3.089234 2.392315
v -10.396451 2.845505 2.292308
v -10.674418 2.845505 2.292308
v -10.396451 2.845505 2.571286
v -10.674418 2.845505 2.571286
v -10.439883 2.845505 2.335898
v -10.630985 2.845505 2.335898
v -10.439883 2.845505 2.527695
v -10.630985 2.845505 2.527695
v -10.471240 2.922185 2.367369
v -10.599628 2.922185 2.367369
v -10.471240 2.922185 2.496224
v -10.599628 2.922185 2.496224
vt 0.375000 0.500000
vt 0.625000 0.500000
vt 0.375000 0.250000
vt 0.625000 0.250000
vt 0.250000 0.375000
vt 0.750000 0.375000
vt 0.250000 0.375000
vt 0.750000 0.375000
vt 0.375000 0.236337
vt 0.250000 0.375000
vt 0.750000 0.375000
vt 0.625000 0.236337
vt 0.375000 0.236337
vt 0.625000 0.236337
vt 0.625000 0.250000
vt 0.375000 0.250000
vt 0.375000 0.250000
vt 0.625000 0.250000
vt 0.625000 0.236337
vt 0.375000 0.236337
vt 0.375000 0.236337
vt 0.625000 0.236337
vt 0.625000 0.236337
vt 0.375000 0.236337
vt 0.375000 0.236337
vt 0.625000 0.236337
vt 0.625000 0.236337
vt 0.375000 0.236337
vt 0.375000 0.236337
vt 0.625000 0.236337
vt 0.625000 0.236337
vt 0.375000 0.236337
vn 0.000000 0.000000 1.000000
vn 0.000000 0.000000 1.000000
vn 0.000000 0.000000 1.000000
vn 0.000000 0.000000 1.000000
vn 0.000000 1.000000 0.000000
vn 0.000000 1.000000 0.000000
vn 0.000000 1.000000 0.000000
vn 0.000000 1.000000 0.000000
vn 0.000000 0.000000 -1.000000
vn 0.000000 0.000000 -1.000000
vn 0.000000 0.000000 -1.000000
vn 0.000000 0.000000 -1.000000
vn 0.000000 -1.000000 0.000000
vn 0.000000 -1.000000 0.000000
vn 0.000000 -1.000000 0.000000
vn 0.000000 -1.000000 0.000000
vn 1.000000 0.000000 0.000000
vn 1.000000 0.000000 0.000000
vn 1.000000 0.000000 0.000000
vn 1.000000 0.000000 0.000000
vn -1.000000 0.000000 0.000000
vn -1.000000 0.000000 0.000000
vn -1.000000 0.000000 0.000000
vn -1.000000 0.000000 0.000000
vn -1.000000 0.000000 0.000000
vn -1.000000 0.000000 0.000000
vn 0.000000 0.000000 -1.000000
vn 0.000000 0.000000 -1.000000
vn 1.000000 0.000000 0.000000
vn 1.000000 0.000000 0.000000
vn 0.000000 0.323257 0.946311
vn 0.000000 0.323257 0.946311
vn 0.000000 0.000000 1.000000
vn 0.000000 0.000000 1.000000
vn 0.000000 -1.000000 0.000000
vn 0.000000 -1.000000 0.000000
vn 0.000000 -1.000000 0.000000
vn 0.000000 -1.000000 0.000000
vn 1.000000 0.000000 0.000000
vn 0.989385 0.145316 0.000000
vn 0.000000 1.000000 0.000000
vn 0.000000 1.000000 0.000000
vn -0.989385 0.145316 0.000000
vn -1.000000 0.000000 0.000000
vn 0.000000 1.000000 0.000000
vn 0.000000 1.000000 0.000000
vn 1.000000 0.000000 0.000000
vn 0.946414 0.322955 0.000000
vn 0.000000 -1.000000 0.000000
vn 0.000000 -1.000000 0.000000
vn 0.000000 -1.000000 0.000000
vn 0.000000 -1.000000 0.000000
vn -0.946414 0.322955 0.000000
vn -1.000000 0.000000 0.000000
vn 0.000000 0.379608 -0.925148
vn 0.000000 0.379608 -0.925148
vn 0.000000 0.379608 -0.925148
vn 0.000000 0.379608 -0.925148
vn 0.925629 0.378432 0.000000
vn 0.925629 0.378432 0.000000
vn 0.000000 0.379608 0.925148
vn 0.000000 0.379608 0.925148
vn -0.925629 0.378432 0.000000
vn -0.925629 0.378432 0.000000
vn 0.000000 -1.000000 -0.000000
vn 0.000000 -1.000000 -0.000000
vn 0.000000 -1.000000 -0.000000
vn 0.000000 -1.000000 -0.000000
vn 0.000000 -1.000000 0.000001
vn 0.000000 -1.000000 0.000001
vn 0.000000 -1.000000 0.000001
vn 0.000000 -1.000000 0.000001
vn 0.000000 -0.379687 0.925115
vn 0.000000 -0.379687 0.925115
vn 0.000000 -0.379687 0.925115
vn 0.000000 -0.379687 0.925115
vn -0.925598 -0.378509 0.000000
vn -0.925598 -0.378509 0.000000
vn -0.925598 -0.378509 0.000000
vn -0.925598 -0.378509 0.000000
vn 0.000000 -0.379687 -0.925115
vn 0.000000 -0.379687 -0.925115
vn 0.000000 -0.379687 -0.925115
vn 0.000000 -0.379687 -0.925115
vn 0.925598 -0.378509 0.000000
vn 0.925598 -0.378509 0.000000
vn 0.925598 -0.378509 0.000000
vn 0.925598 -0.378509 0.000000
s off
g pCube8
usemtl initialShadingGroup
f 1/1/1 2/2/2 12/12/3 9/9/4
s 1
f 3/3/5 4/4/6 6/6/7 5/5/8
s 2
f 10/10/9 11/11/10 8/8/11 7/7/12
s off
f 7/7/13 8/8/14 2/2/15 1/1/16
s 3
f 2/2/17 8/8/18 11/11/19 12/12/20
s 4
f 7/7/21 1/1/22 9/9/23 10/10/24
f 10/10/24 9/9/23 3/3/25 5/5/26
s 2
f 5/5/27 6/6/28 11/11/10 10/10/9
s 3
f 12/12/20 11/11/19 6/6/29 4/4/30
s 5
f 14/13/31 13/14/32 15/15/33 16/16/34
s off
f 9/9/35 12/12/36 19/19/37 20/20/38
s 3
f 12/12/20 4/4/30 18/18/39 19/19/40
s 1
f 4/4/6 3/3/5 17/17/41 18/18/42
s 4
f 3/3/25 9/9/23 20/20/43 17/17/44
s 1
f 18/18/42 17/17/41 16/16/45 15/15/46
s 3
f 19/19/40 18/18/39 15/15/47 13/14/48
s off
f 30/29/49 29/30/50 31/31/51 32/32/52
s 4
f 17/17/44 20/20/43 14/13/53 16/16/54
s off
f 20/20/55 19/19/56 21/22/57 22/21/58
s 3
f 19/19/40 13/14/48 23/23/59 21/22/60
s 5
f 13/14/32 14/13/31 24/24/61 23/23/62
s 4
f 14/13/53 20/20/43 22/21/63 24/24/64
s 6
f 22/21/65 21/22/66 25/26/67 26/25/68
f 21/22/66 23/23/69 27/27/70 25/26/67
f 23/23/69 24/24/71 28/28/72 27/27/70
f 24/24/71 22/21/65 26/25/68 28/28/72
s off
f 26/25/73 25/26/74 29/30/75 30/29/76
f 25/26/77 27/27/78 31/31/79 29/30/80
f 27/27/81 28/28/82 32/32/83 31/31/84
f 28/28/85 26/25/86 30/29/87 32/32/88
