# This file uses centimeters as units for non-parametric coordinates.

mtllib TrashCan.mtl
g default
v 0.951057 -0.004567 -9.869345
v 0.809018 -0.004567 -10.148113
v 0.587786 -0.004567 -10.369345
v 0.309017 -0.004567 -10.511385
v 0.000000 -0.004567 -10.560328
v -0.309017 -0.004567 -10.511385
v -0.587785 -0.004567 -10.369345
v -0.809017 -0.004567 -10.148113
v -0.951057 -0.004567 -9.869345
v -1.000000 -0.004567 -9.560328
v -0.951057 -0.004567 -9.251310
v -0.809017 -0.004567 -8.972542
v -0.587785 -0.004567 -8.751310
v -0.309017 -0.004567 -8.609271
v -0.000000 -0.004567 -8.560328
v 0.309017 -0.004567 -8.609271
v 0.587785 -0.004567 -8.751310
v 0.809017 -0.004567 -8.972542
v 0.951057 -0.004567 -9.251310
v 1.000000 -0.004567 -9.560328
v 1.183307 3.183858 -9.944807
v 1.006581 3.183858 -10.291652
v 0.731324 3.183858 -10.566909
v 0.384480 3.183858 -10.743635
v 0.000000 3.183858 -10.804530
v -0.384480 3.183858 -10.743634
v -0.731324 3.183858 -10.566909
v -1.006581 3.183858 -10.291652
v -1.183307 3.183858 -9.944807
v -1.244202 3.183858 -9.560328
v -1.183307 3.183858 -9.175848
v -1.006581 3.183858 -8.829003
v -0.731324 3.183858 -8.553746
v -0.384480 3.183858 -8.377021
v -0.000000 3.183858 -8.316125
v 0.384480 3.183858 -8.377021
v 0.731324 3.183858 -8.553746
v 1.006581 3.183858 -8.829003
v 1.183307 3.183858 -9.175848
v 1.244202 3.183858 -9.560328
v 1.419969 3.217350 -10.021704
v 1.207898 3.217350 -10.437917
v 0.877589 3.217350 -10.768226
v 0.461376 3.217350 -10.980297
v 0.000000 3.217350 -11.053370
v -0.461376 3.217350 -10.980296
v -0.877589 3.217350 -10.768226
v -1.207897 3.217350 -10.437917
v -1.419968 3.217350 -10.021704
v -1.493043 3.217350 -9.560328
v -1.419968 3.217350 -9.098951
v -1.207897 3.217350 -8.682738
v -0.877589 3.217350 -8.352429
v -0.461376 3.217350 -8.140359
v -0.000000 3.217350 -8.067285
v 0.461376 3.217350 -8.140359
v 0.877589 3.217350 -8.352429
v 1.207897 3.217350 -8.682738
v 1.419968 3.217350 -9.098951
v 1.493043 3.217350 -9.560328
v 1.230640 3.393279 -9.960188
v 1.046845 3.393279 -10.320905
v 0.760577 3.393279 -10.607173
v 0.399859 3.393279 -10.790968
v 0.000000 3.393279 -10.854299
v -0.399859 3.393279 -10.790967
v -0.760577 3.393279 -10.607173
v -1.046844 3.393279 -10.320905
v -1.230639 3.393279 -9.960188
v -1.293971 3.393279 -9.560328
v -1.230639 3.393279 -9.160469
v -1.046844 3.393279 -8.799750
v -0.760577 3.393279 -8.513482
v -0.399859 3.393279 -8.329688
v -0.000000 3.393279 -8.266356
v 0.399859 3.393279 -8.329688
v 0.760577 3.393279 -8.513482
v 1.046844 3.393279 -8.799750
v 1.230639 3.393279 -9.160469
v 1.293970 3.393279 -9.560328
v 0.287149 3.393280 -9.653631
v 0.244264 3.393280 -9.737798
v 0.177468 3.393280 -9.804593
v 0.093300 3.393280 -9.847479
v 0.000000 3.393280 -9.862256
v -0.093300 3.393280 -9.847479
v -0.177468 3.393280 -9.804593
v -0.244264 3.393280 -9.737798
v -0.287149 3.393280 -9.653631
v -0.301926 3.393280 -9.560329
v -0.287149 3.393280 -9.467030
v -0.244264 3.393280 -9.382861
v -0.177468 3.393280 -9.316066
v -0.093300 3.393280 -9.273180
v 0.000000 3.393280 -9.258403
v 0.093300 3.393280 -9.273180
v 0.177468 3.393280 -9.316066
v 0.244264 3.393280 -9.382861
v 0.287149 3.393280 -9.467030
v 0.301926 3.393280 -9.560329
v 0.287149 3.475424 -9.653631
v 0.244264 3.475424 -9.737798
v 0.177468 3.475424 -9.804593
v 0.093300 3.475424 -9.847479
v 0.000000 3.475424 -9.862256
v -0.093300 3.475424 -9.847479
v -0.177468 3.475424 -9.804593
v -0.244264 3.475424 -9.737798
v -0.287149 3.475424 -9.653631
v -0.301926 3.475424 -9.560329
v -0.287149 3.475424 -9.467030
v -0.244264 3.475424 -9.382861
v -0.177468 3.475424 -9.316066
v -0.093300 3.475424 -9.273180
v 0.000000 3.475424 -9.258403
v 0.093300 3.475424 -9.273180
v 0.177468 3.475424 -9.316066
v 0.244264 3.475424 -9.382861
v 0.287149 3.475424 -9.467030
v 0.301926 3.475424 -9.560329
vt 0.277472 0.275053
vt 0.275795 0.229616
vt 0.273867 0.184868
vt 0.271118 0.140941
vt 0.391718 0.996147
vt 0.385650 0.954316
vt 0.377499 0.912279
vt 0.367883 0.869650
vt 0.357447 0.826351
vt 0.346728 0.782384
vt 0.336153 0.737784
vt 0.326055 0.692605
vt 0.316684 0.646918
vt 0.308221 0.600804
vt 0.300786 0.554356
vt 0.294444 0.507678
vt 0.289207 0.460884
vt 0.285029 0.414092
vt 0.281807 0.367433
vt 0.279370 0.321040
vt 0.709293 0.243564
vt 0.717564 0.198535
vt 0.727626 0.152296
vt 0.738162 0.104423
vt 0.861282 0.917996
vt 0.843479 0.870227
vt 0.821060 0.826174
vt 0.799200 0.783706
vt 0.779252 0.742058
vt 0.761576 0.700916
vt 0.746194 0.660104
vt 0.733038 0.619485
vt 0.722026 0.578936
vt 0.713097 0.538340
vt 0.706215 0.497587
vt 0.701374 0.456565
vt 0.698597 0.415166
vt 0.697935 0.373281
vt 0.699456 0.330798
vt 0.703229 0.287601
vt 0.740058 0.252328
vt 0.748782 0.209369
vt 0.760642 0.165161
vt 0.776422 0.119021
vt 0.907160 0.895278
vt 0.877196 0.847837
vt 0.850417 0.806075
vt 0.827259 0.765791
vt 0.807311 0.726176
vt 0.790132 0.687012
vt 0.775397 0.648170
vt 0.762881 0.609534
vt 0.752430 0.570990
vt 0.743943 0.532426
vt 0.737367 0.493731
vt 0.732688 0.454792
vt 0.729933 0.415496
vt 0.729166 0.375724
vt 0.730490 0.335359
vt 0.734054 0.294272
vt 0.773188 0.263546
vt 0.781907 0.223514
vt 0.794615 0.182512
vt 0.813144 0.140628
vt 0.945949 0.853061
vt 0.907817 0.817922
vt 0.878867 0.780739
vt 0.855668 0.743506
vt 0.836459 0.706574
vt 0.820268 0.669955
vt 0.806540 0.633594
vt 0.794943 0.597413
vt 0.785270 0.561324
vt 0.777395 0.525234
vt 0.771248 0.489041
vt 0.766811 0.452638
vt 0.764111 0.415916
vt 0.763224 0.378760
vt 0.764282 0.341057
vt 0.767494 0.302690
vt 0.900249 0.337211
vt 0.904005 0.317942
vt 0.909502 0.300847
vt 0.916879 0.286748
vt 0.987813 0.653424
vt 0.975758 0.646334
vt 0.964359 0.635030
vt 0.953811 0.620475
vt 0.944188 0.603391
vt 0.935496 0.584354
vt 0.927709 0.563820
vt 0.920796 0.542156
vt 0.914737 0.519660
vt 0.909527 0.496586
vt 0.905177 0.473156
vt 0.901714 0.449578
vt 0.899187 0.426053
vt 0.897666 0.402794
vt 0.897247 0.380036
vt 0.898056 0.358060
vt 0.920162 0.331501
vt 0.914184 0.322892
vt 0.919031 0.307384
vt 0.925652 0.294699
vt 0.992975 0.643324
vt 0.981837 0.636161
vt 0.971381 0.625686
vt 0.961741 0.612142
vt 0.952903 0.596077
vt 0.944844 0.578004
vt 0.937551 0.558363
vt 0.931020 0.537520
vt 0.925255 0.515791
vt 0.920272 0.493450
vt 0.916095 0.470746
vt 0.912759 0.447915
vt 0.910312 0.425189
vt 0.908816 0.402813
vt 0.908349 0.381054
vt 0.909005 0.360222
vt 0.926089 0.342869
vt 0.910902 0.340685
vt 0.935240 0.351848
vt 0.946719 0.357559
vt 0.959403 0.359441
vt 0.972050 0.357311
vt 0.983420 0.351375
vt 0.992402 0.342215
vt 0.998115 0.330727
vt 1.000000 0.318034
vt 0.997872 0.305379
vt 0.991939 0.294000
vt 0.982782 0.285009
vt 0.971296 0.279287
vt 0.958606 0.277393
vt 0.945953 0.279512
vt 0.934576 0.285437
vt 0.926222 0.276917
vt 0.919932 0.306176
vt 0.918041 0.318857
vt 0.841787 0.099875
vt 0.796887 0.066690
vt 0.745189 0.053977
vt 0.266503 0.098254
vt 0.172867 0.266550
vt 0.211354 0.248650
vt 0.130725 0.271671
vt 0.089056 0.263508
vt 0.051942 0.242859
vt 0.023019 0.211741
vt 0.005120 0.173199
vt 0.000000 0.131002
vt 0.008163 0.089278
vt 0.028814 0.052108
vt 0.059932 0.023129
vt 0.098475 0.005175
vt 0.140673 0.000000
vt 0.182398 0.008108
vt 0.219568 0.028703
vt 0.248548 0.059766
vt 0.263011 0.182611
vt 0.242417 0.219725
vn 0.948280 -0.076367 -0.308113
vn 0.806654 -0.076367 -0.586069
vn 0.806654 -0.076367 -0.586069
vn 0.948280 -0.076367 -0.308113
vn 0.586069 -0.076367 -0.806654
vn 0.586069 -0.076367 -0.806654
vn 0.308115 -0.076367 -0.948279
vn 0.308115 -0.076367 -0.948279
vn -0.000000 -0.076367 -0.997080
vn 0.000000 -0.076367 -0.997080
vn -0.308115 -0.076366 -0.948279
vn -0.308115 -0.076366 -0.948279
vn -0.586069 -0.076367 -0.806654
vn -0.586069 -0.076367 -0.806654
vn -0.806654 -0.076367 -0.586069
vn -0.806654 -0.076367 -0.586069
vn -0.948279 -0.076367 -0.308114
vn -0.948279 -0.076367 -0.308114
vn -0.997080 -0.076367 0.000000
vn -0.997080 -0.076367 0.000000
vn -0.948279 -0.076367 0.308114
vn -0.948279 -0.076367 0.308114
vn -0.806654 -0.076367 0.586069
vn -0.806654 -0.076367 0.586069
vn -0.586068 -0.076367 0.806655
vn -0.586068 -0.076367 0.806655
vn -0.308115 -0.076367 0.948279
vn -0.308115 -0.076367 0.948279
vn 0.000000 -0.076367 0.997080
vn 0.000000 -0.076367 0.997080
vn 0.308115 -0.076367 0.948279
vn 0.308115 -0.076367 0.948279
vn 0.586068 -0.076367 0.806655
vn 0.586068 -0.076367 0.806655
vn 0.806654 -0.076367 0.586069
vn 0.806654 -0.076367 0.586069
vn 0.948279 -0.076366 0.308114
vn 0.948279 -0.076367 0.308114
vn 0.997080 -0.076367 0.000001
vn 0.997080 -0.076367 0.000001
vn 0.000000 -1.000000 0.000000
vn 0.000000 -1.000000 0.000000
vn 0.000000 -1.000000 0.000000
vn 0.000000 -1.000000 0.000000
vn 0.000000 -1.000000 0.000000
vn 0.000000 -1.000000 0.000000
vn 0.000000 -1.000000 0.000000
vn 0.000000 -1.000000 0.000000
vn 0.000000 -1.000000 0.000000
vn 0.000000 -1.000000 0.000000
vn 0.000000 -1.000000 0.000000
vn 0.000000 -1.000000 0.000000
vn 0.000000 -1.000000 0.000000
vn 0.000000 -1.000000 0.000000
vn 0.000000 -1.000000 0.000000
vn 0.000000 -1.000000 0.000000
vn 0.000000 -1.000000 0.000000
vn 0.000000 -1.000000 0.000000
vn 0.000000 -1.000000 0.000000
vn 0.000000 -1.000000 0.000000
vn 0.000000 1.000000 0.000000
vn 0.000000 1.000000 0.000000
vn 0.000000 1.000000 0.000000
vn 0.000000 1.000000 0.000000
vn 0.000000 1.000000 0.000000
vn 0.000000 1.000000 0.000000
vn 0.000000 1.000000 0.000000
vn 0.000000 1.000000 0.000000
vn 0.000000 1.000000 0.000000
vn 0.000000 1.000000 0.000000
vn 0.000000 1.000000 0.000000
vn 0.000000 1.000000 0.000000
vn 0.000000 1.000000 0.000000
vn 0.000000 1.000000 0.000000
vn 0.000000 1.000000 0.000000
vn 0.000000 1.000000 0.000000
vn 0.000000 1.000000 0.000000
vn 0.000000 1.000000 0.000000
vn 0.000000 1.000000 0.000000
vn 0.000000 1.000000 0.000000
vn 0.126863 -0.991063 -0.041220
vn 0.107916 -0.991063 -0.078406
vn 0.107916 -0.991063 -0.078406
vn 0.126863 -0.991063 -0.041220
vn 0.078406 -0.991063 -0.107916
vn 0.078406 -0.991063 -0.107916
vn 0.041220 -0.991063 -0.126863
vn 0.041220 -0.991063 -0.126863
vn -0.000000 -0.991063 -0.133392
vn -0.000000 -0.991063 -0.133392
vn -0.041220 -0.991063 -0.126863
vn -0.041220 -0.991063 -0.126863
vn -0.078405 -0.991063 -0.107916
vn -0.078405 -0.991063 -0.107916
vn -0.107916 -0.991063 -0.078406
vn -0.107916 -0.991063 -0.078406
vn -0.126863 -0.991063 -0.041220
vn -0.126863 -0.991063 -0.041220
vn -0.133392 -0.991063 0.000000
vn -0.133392 -0.991063 0.000000
vn -0.126863 -0.991063 0.041220
vn -0.126863 -0.991063 0.041220
vn -0.107916 -0.991063 0.078405
vn -0.107916 -0.991063 0.078405
vn -0.078406 -0.991063 0.107916
vn -0.078405 -0.991063 0.107916
vn -0.041220 -0.991063 0.126863
vn -0.041220 -0.991063 0.126863
vn 0.000000 -0.991064 0.133391
vn 0.000000 -0.991064 0.133391
vn 0.041220 -0.991063 0.126863
vn 0.041220 -0.991063 0.126863
vn 0.078406 -0.991063 0.107916
vn 0.078406 -0.991063 0.107916
vn 0.107916 -0.991063 0.078406
vn 0.107916 -0.991063 0.078406
vn 0.126863 -0.991063 0.041220
vn 0.126863 -0.991063 0.041220
vn 0.133392 -0.991063 0.000000
vn 0.133392 -0.991063 -0.000000
vn 0.629796 0.749321 -0.204632
vn 0.535736 0.749321 -0.389236
vn 0.535736 0.749321 -0.389235
vn 0.629796 0.749321 -0.204632
vn 0.389235 0.749321 -0.535736
vn 0.389235 0.749321 -0.535736
vn 0.204632 0.749321 -0.629796
vn 0.204632 0.749321 -0.629796
vn -0.000000 0.749321 -0.662207
vn -0.000001 0.749321 -0.662207
vn -0.204632 0.749321 -0.629797
vn -0.204632 0.749321 -0.629797
vn -0.389235 0.749321 -0.535736
vn -0.389235 0.749321 -0.535736
vn -0.535737 0.749321 -0.389235
vn -0.535737 0.749321 -0.389235
vn -0.629796 0.749321 -0.204633
vn -0.629796 0.749321 -0.204633
vn -0.662207 0.749321 -0.000000
vn -0.662207 0.749321 0.000000
vn -0.629795 0.749322 0.204633
vn -0.629796 0.749322 0.204633
vn -0.535737 0.749322 0.389235
vn -0.535737 0.749322 0.389235
vn -0.389235 0.749321 0.535737
vn -0.389235 0.749321 0.535737
vn -0.204632 0.749321 0.629796
vn -0.204632 0.749321 0.629797
vn -0.000000 0.749321 0.662207
vn -0.000000 0.749321 0.662207
vn 0.204632 0.749321 0.629797
vn 0.204632 0.749321 0.629797
vn 0.389235 0.749321 0.535737
vn 0.389235 0.749321 0.535737
vn 0.535737 0.749321 0.389235
vn 0.535737 0.749321 0.389235
vn 0.629796 0.749321 0.204633
vn 0.629796 0.749321 0.204633
vn 0.662207 0.749321 0.000001
vn 0.662207 0.749321 0.000001
vn 0.000001 1.000000 0.000000
vn 0.000001 1.000000 -0.000001
vn 0.000001 1.000000 -0.000001
vn 0.000001 1.000000 0.000000
vn 0.000001 1.000000 -0.000001
vn 0.000001 1.000000 -0.000001
vn 0.000000 1.000000 -0.000001
vn 0.000000 1.000000 -0.000001
vn 0.000000 1.000000 -0.000001
vn 0.000000 1.000000 -0.000001
vn -0.000000 1.000000 -0.000001
vn -0.000000 1.000000 -0.000001
vn -0.000001 1.000000 -0.000000
vn -0.000001 1.000000 -0.000000
vn -0.000001 1.000000 -0.000001
vn -0.000001 1.000000 -0.000001
vn -0.000001 1.000000 -0.000000
vn -0.000001 1.000000 -0.000000
vn -0.000001 1.000000 0.000000
vn -0.000001 1.000000 0.000000
vn -0.000001 1.000000 0.000000
vn -0.000001 1.000000 0.000000
vn -0.000001 1.000000 0.000001
vn -0.000001 1.000000 0.000001
vn -0.000001 1.000000 0.000001
vn -0.000001 1.000000 0.000001
vn -0.000000 1.000000 0.000001
vn -0.000000 1.000000 0.000001
vn -0.000000 1.000000 0.000001
vn -0.000000 1.000000 0.000001
vn 0.000000 1.000000 0.000001
vn 0.000000 1.000000 0.000001
vn 0.000001 1.000000 0.000001
vn 0.000001 1.000000 0.000001
vn 0.000001 1.000000 0.000000
vn 0.000001 1.000000 -0.000000
vn 0.000001 1.000000 -0.000000
vn 0.000001 1.000000 -0.000000
vn 0.000001 1.000000 0.000000
vn 0.000001 1.000000 0.000000
vn 0.951057 0.000000 -0.309016
vn 0.809015 0.000000 -0.587788
vn 0.809015 0.000000 -0.587788
vn 0.951057 0.000000 -0.309016
vn 0.587787 0.000000 -0.809016
vn 0.587787 0.000000 -0.809016
vn 0.309017 0.000000 -0.951057
vn 0.309017 0.000000 -0.951057
vn -0.000000 0.000000 -1.000000
vn -0.000000 0.000000 -1.000000
vn -0.309016 0.000000 -0.951057
vn -0.309016 0.000000 -0.951057
vn -0.587787 0.000000 -0.809016
vn -0.587787 0.000000 -0.809016
vn -0.809016 0.000000 -0.587787
vn -0.809016 0.000000 -0.587787
vn -0.951057 0.000000 -0.309016
vn -0.951057 0.000000 -0.309016
vn -1.000000 0.000000 0.000000
vn -1.000000 0.000000 0.000000
vn -0.951057 0.000000 0.309016
vn -0.951057 0.000000 0.309016
vn -0.809018 0.000000 0.587784
vn -0.809018 0.000000 0.587784
vn -0.587784 0.000000 0.809018
vn -0.587784 0.000000 0.809018
vn -0.309020 0.000000 0.951055
vn -0.309020 0.000000 0.951055
vn 0.000000 0.000000 1.000000
vn 0.000000 0.000000 1.000000
vn 0.309020 0.000000 0.951055
vn 0.309020 0.000000 0.951055
vn 0.587785 0.000000 0.809017
vn 0.587785 0.000000 0.809017
vn 0.809018 0.000000 0.587784
vn 0.809018 0.000000 0.587784
vn 0.951056 0.000000 0.309018
vn 0.951056 0.000000 0.309018
vn 1.000000 0.000000 0.000001
vn 1.000000 0.000000 0.000001
s 1
g TrashCan
usemtl initialShadingGroup
f 1/1/1 2/2/2 22/22/3 21/21/4
f 2/2/2 3/3/5 23/23/6 22/22/3
f 3/3/5 4/4/7 24/24/8 23/23/6
f 4/4/7 5/144/9 25/143/10 24/24/8
f 5/5/9 6/6/11 26/26/12 25/25/10
f 6/6/11 7/7/13 27/27/14 26/26/12
f 7/7/13 8/8/15 28/28/16 27/27/14
f 8/8/15 9/9/17 29/29/18 28/28/16
f 9/9/17 10/10/19 30/30/20 29/29/18
f 10/10/19 11/11/21 31/31/22 30/30/20
f 11/11/21 12/12/23 32/32/24 31/31/22
f 12/12/23 13/13/25 33/33/26 32/32/24
f 13/13/25 14/14/27 34/34/28 33/33/26
f 14/14/27 15/15/29 35/35/30 34/34/28
f 15/15/29 16/16/31 36/36/32 35/35/30
f 16/16/31 17/17/33 37/37/34 36/36/32
f 17/17/33 18/18/35 38/38/36 37/37/34
f 18/18/35 19/19/37 39/39/38 38/38/36
f 19/19/37 20/20/39 40/40/40 39/39/38
f 20/20/39 1/1/1 21/21/4 40/40/40
s off
f 1/146/41 20/145/42 19/147/43 18/148/44 17/149/45 16/150/46 15/151/47 14/152/48 13/153/49 12/154/50 11/155/51 10/156/52 9/157/53 8/158/54 7/159/55 6/160/56 5/144/57 4/4/58 3/161/59 2/162/60
f 101/101/61 102/140/62 103/139/63 104/104/64 105/137/65 106/136/66 107/135/67 108/134/68 109/133/69 110/132/70 111/131/71 112/130/72 113/129/73 114/128/74 115/127/75 116/126/76 117/125/77 118/124/78 119/123/79 120/121/80
s 2
f 21/21/81 22/22/82 42/42/83 41/41/84
f 22/22/82 23/23/85 43/43/86 42/42/83
f 23/23/85 24/24/87 44/44/88 43/43/86
f 24/24/87 25/143/89 45/142/90 44/44/88
f 25/25/89 26/26/91 46/46/92 45/45/90
f 26/26/91 27/27/93 47/47/94 46/46/92
f 27/27/93 28/28/95 48/48/96 47/47/94
f 28/28/95 29/29/97 49/49/98 48/48/96
f 29/29/97 30/30/99 50/50/100 49/49/98
f 30/30/99 31/31/101 51/51/102 50/50/100
f 31/31/101 32/32/103 52/52/104 51/51/102
f 32/32/103 33/33/105 53/53/106 52/52/104
f 33/33/105 34/34/107 54/54/108 53/53/106
f 34/34/107 35/35/109 55/55/110 54/54/108
f 35/35/109 36/36/111 56/56/112 55/55/110
f 36/36/111 37/37/113 57/57/114 56/56/112
f 37/37/113 38/38/115 58/58/116 57/57/114
f 38/38/115 39/39/117 59/59/118 58/58/116
f 39/39/117 40/40/119 60/60/120 59/59/118
f 40/40/119 21/21/81 41/41/84 60/60/120
s 3
f 41/41/121 42/42/122 62/62/123 61/61/124
f 42/42/122 43/43/125 63/63/126 62/62/123
f 43/43/125 44/44/127 64/64/128 63/63/126
f 44/44/127 45/142/129 65/141/130 64/64/128
f 45/45/129 46/46/131 66/66/132 65/65/130
f 46/46/131 47/47/133 67/67/134 66/66/132
f 47/47/133 48/48/135 68/68/136 67/67/134
f 48/48/135 49/49/137 69/69/138 68/68/136
f 49/49/137 50/50/139 70/70/140 69/69/138
f 50/50/139 51/51/141 71/71/142 70/70/140
f 51/51/141 52/52/143 72/72/144 71/71/142
f 52/52/143 53/53/145 73/73/146 72/72/144
f 53/53/145 54/54/147 74/74/148 73/73/146
f 54/54/147 55/55/149 75/75/150 74/74/148
f 55/55/149 56/56/151 76/76/152 75/75/150
f 56/56/151 57/57/153 77/77/154 76/76/152
f 57/57/153 58/58/155 78/78/156 77/77/154
f 58/58/155 59/59/157 79/79/158 78/78/156
f 59/59/157 60/60/159 80/80/160 79/79/158
f 60/60/159 41/41/121 61/61/124 80/80/160
s 4
f 61/61/161 62/62/162 82/82/163 81/81/164
f 62/62/162 63/63/165 83/83/166 82/82/163
f 63/63/165 64/64/167 84/84/168 83/83/166
f 64/64/167 65/141/169 85/138/170 84/84/168
f 65/65/169 66/66/171 86/86/172 85/85/170
f 66/66/171 67/67/173 87/87/174 86/86/172
f 67/67/173 68/68/175 88/88/176 87/87/174
f 68/68/175 69/69/177 89/89/178 88/88/176
f 69/69/177 70/70/179 90/90/180 89/89/178
f 70/70/179 71/71/181 91/91/182 90/90/180
f 71/71/181 72/72/183 92/92/184 91/91/182
f 72/72/183 73/73/185 93/93/186 92/92/184
f 73/73/185 74/74/187 94/94/188 93/93/186
f 74/74/187 75/75/189 95/95/190 94/94/188
f 75/75/189 76/76/191 96/96/192 95/95/190
f 76/76/191 77/77/193 97/97/194 96/96/192
f 77/77/193 78/78/195 98/98/196 97/97/194
f 78/78/195 79/79/197 99/99/198 98/98/196
f 79/79/197 80/80/199 100/100/200 99/99/198
f 80/80/199 61/61/161 81/81/164 100/100/200
s 5
f 81/81/201 82/82/202 102/102/203 101/122/204
f 82/82/202 83/83/205 103/103/206 102/102/203
f 83/83/205 84/84/207 104/104/208 103/103/206
f 84/84/207 85/138/209 105/137/210 104/104/208
f 85/85/209 86/86/211 106/106/212 105/105/210
f 86/86/211 87/87/213 107/107/214 106/106/212
f 87/87/213 88/88/215 108/108/216 107/107/214
f 88/88/215 89/89/217 109/109/218 108/108/216
f 89/89/217 90/90/219 110/110/220 109/109/218
f 90/90/219 91/91/221 111/111/222 110/110/220
f 91/91/221 92/92/223 112/112/224 111/111/222
f 92/92/223 93/93/225 113/113/226 112/112/224
f 93/93/225 94/94/227 114/114/228 113/113/226
f 94/94/227 95/95/229 115/115/230 114/114/228
f 95/95/229 96/96/231 116/116/232 115/115/230
f 96/96/231 97/97/233 117/117/234 116/116/232
f 97/97/233 98/98/235 118/118/236 117/117/234
f 98/98/235 99/99/237 119/119/238 118/118/236
f 99/99/237 100/100/239 120/120/240 119/119/238
f 100/100/239 81/81/201 101/122/204 120/120/240
